<?xml version="1.0" encoding="UTF-8"?>
<svg width="21mm" height="36mm" version="1.1" viewBox="0 0 84.667 144.49" xmlns="http://www.w3.org/2000/svg" xmlns:xlink="http://www.w3.org/1999/xlink">
 <g fill="#f8f8f0" transform="translate(-30.983 -57.084)">
  <path id="path847" d="m65.757 9.8655c-7.9718 4.4198-15.169 10.233-21.167 17.096-6.4868 7.4228-11.565 16.072-14.886 25.353h2.0934c0.22428-0.8288 0.49604-1.6446 0.8139-2.4422 0.53357-1.3389 1.1967-2.6262 1.9771-3.838 2.8209 0.31506 5.7311-0.21793 8.2574-1.5121 1.5109-0.77396 2.8819-1.8117 4.0706-3.0236 1.4337-1.4617 2.5878-3.1626 3.5719-4.9635-1.428-0.046-2.86 0.0451-4.2695 0.27854-2.7056 0.4481-5.3251 1.4119-7.676 2.8241 2.2114-1.9422 4.8424-3.4044 7.6595-4.2566 1.7214-0.52069 3.5113-0.80982 5.3087-0.8692 0.12614-0.26957 0.2519-0.5394 0.37259-0.8108 1.259-2.8311 2.2634-5.7701 3.5228-8.601 0.20296-0.45622 0.41485-0.90847 0.63097-1.3586-0.73272 0.0125-1.4652 0.0504-2.1947 0.11989-1.6328 0.15556-3.2517 0.45353-4.8328 0.88987 1.8007-0.93527 3.7209-1.6406 5.6989-2.0934 0.67976-0.15562 1.3665-0.27794 2.0572-0.37362 2.3647-4.552 5.4021-8.7544 8.9912-12.419zm-45.474 43.729a3.489 3.489 0 0 0-3.4887 3.4887 3.489 3.489 0 0 0 3.4887 3.4892h21.399a3.489 3.489 0 0 0 3.4892-3.4892 3.489 3.489 0 0 0-3.4892-3.4887zm0.11627 9.3038c0.12707 1.1015-0.12943 2.2434-0.7152 3.1848-0.58577 0.94141-1.4966 1.6763-2.5409 2.049-1.1186 0.39915-2.3434 0.38497-3.4892 0.69763-1.2226 0.33362-2.3376 1.0457-3.1616 2.0087-0.82391 0.96297-1.3544 2.1721-1.5146 3.4292-0.16019 1.2572 0.0494 2.5578 0.58756 3.7052 0.53818 1.1474 1.402 2.1388 2.4603 2.836 0.94371 0.62175 2.0198 1.0048 3.052 1.465 1.0322 0.46017 2.0572 1.0249 2.7631 1.9074 0.62554 0.78197 0.96193 1.7901 0.93069 2.791h24.423c-0.0312-1.0009 0.30516-2.0091 0.93069-2.791 0.70595-0.88249 1.7304-1.4472 2.7626-1.9074 1.0322-0.46017 2.1083-0.84328 3.052-1.465 1.0583-0.69725 1.9226-1.6886 2.4608-2.836 0.53818-1.1474 0.74775-2.448 0.58756-3.7052-0.16019-1.2572-0.69072-2.4663-1.5146-3.4292-0.82391-0.96297-1.9389-1.675-3.1616-2.0087-1.1458-0.31265-2.3706-0.29848-3.4892-0.69763-1.0443-0.37263-1.9557-1.1076-2.5414-2.049-0.58577-0.94141-0.84226-2.0834-0.7152-3.1848h-10.583z"/>
  <use transform="translate(84.667)" width="100%" height="100%" xlink:href="#path847"/>
  <use transform="translate(28.222 48.164)" width="100%" height="100%" xlink:href="#path847"/>
  <use transform="translate(-28.222 96.328)" width="100%" height="100%" xlink:href="#path847"/>
  <use transform="translate(56.444 96.328)" width="100%" height="100%" xlink:href="#path847"/>
  <use transform="translate(-4e-6 144.49)" width="100%" height="100%" xlink:href="#path847"/>
  <use transform="translate(84.667 144.49)" width="100%" height="100%" xlink:href="#path847"/>
 </g>
</svg>
